<?xml version="1.0" encoding="UTF-8" standalone="no"?>
<!-- Created with Inkscape (http://www.inkscape.org/) -->

<svg
   width="210mm"
   height="297mm"
   viewBox="0 0 210 297"
   version="1.1"
   id="svg1"
   inkscape:version="1.4.2 (1:1.4.2+202505120738+ebf0e940d0)"
   sodipodi:docname="class_error2.svg"
   inkscape:export-filename="class_error1.png"
   inkscape:export-xdpi="96"
   inkscape:export-ydpi="96"
   xmlns:inkscape="http://www.inkscape.org/namespaces/inkscape"
   xmlns:sodipodi="http://sodipodi.sourceforge.net/DTD/sodipodi-0.dtd"
   xmlns="http://www.w3.org/2000/svg"
   xmlns:svg="http://www.w3.org/2000/svg">
  <sodipodi:namedview
     id="namedview1"
     pagecolor="#ffffff"
     bordercolor="#666666"
     borderopacity="1.0"
     inkscape:showpageshadow="2"
     inkscape:pageopacity="0.0"
     inkscape:pagecheckerboard="0"
     inkscape:deskcolor="#d1d1d1"
     inkscape:document-units="mm"
     inkscape:zoom="0.84185606"
     inkscape:cx="396.74241"
     inkscape:cy="561.25984"
     inkscape:window-width="1920"
     inkscape:window-height="1153"
     inkscape:window-x="1920"
     inkscape:window-y="22"
     inkscape:window-maximized="1"
     inkscape:current-layer="layer1" />
  <defs
     id="defs1" />
  <g
     inkscape:label="Layer 1"
     inkscape:groupmode="layer"
     id="layer1">
    <ellipse
       style="fill:#1e59ae;stroke:none;stroke-width:1;stroke-linejoin:round"
       id="path1"
       cx="34.100002"
       cy="80.457146"
       rx="3.6142857"
       ry="4.0857143" />
    <ellipse
       style="fill:#1e59ae;stroke:none;stroke-width:1;stroke-linejoin:round"
       id="ellipse1"
       cx="68.985718"
       cy="48.085716"
       rx="3.6142857"
       ry="4.0857143" />
    <ellipse
       style="fill:#1e59ae;stroke:none;stroke-width:1;stroke-linejoin:round"
       id="ellipse2"
       cx="96.957146"
       cy="110.62857"
       rx="3.6142857"
       ry="4.0857143" />
    <ellipse
       style="fill:#1e59ae;stroke:none;stroke-width:1;stroke-linejoin:round"
       id="ellipse3"
       cx="96.01429"
       cy="74.485718"
       rx="3.6142857"
       ry="4.0857143" />
    <ellipse
       style="fill:#1e59ae;stroke:none;stroke-width:1;stroke-linejoin:round"
       id="ellipse4"
       cx="94.757149"
       cy="153.05714"
       rx="3.6142857"
       ry="4.0857143" />
    <ellipse
       style="fill:#1e59ae;stroke:none;stroke-width:1;stroke-linejoin:round"
       id="ellipse5"
       cx="48.871433"
       cy="110.31429"
       rx="3.6142857"
       ry="4.0857143" />
    <ellipse
       style="fill:#1e59ae;stroke:none;stroke-width:1;stroke-linejoin:round"
       id="ellipse6"
       cx="132.78572"
       cy="95.857147"
       rx="3.6142857"
       ry="4.0857143" />
    <ellipse
       style="fill:#1e59ae;stroke:none;stroke-width:1;stroke-linejoin:round"
       id="ellipse7"
       cx="132.78572"
       cy="95.857147"
       rx="3.6142857"
       ry="4.0857143" />
    <ellipse
       style="fill:#1e59ae;stroke:none;stroke-width:1;stroke-linejoin:round"
       id="ellipse8"
       cx="96.01429"
       cy="74.485718"
       rx="3.6142857"
       ry="4.0857143" />
    <ellipse
       style="fill:#d4aa00;stroke:none;stroke-width:1;stroke-linejoin:round"
       id="ellipse9"
       cx="76.214294"
       cy="103.4"
       rx="3.6142857"
       ry="4.0857143" />
    <ellipse
       style="fill:#d4aa00;stroke:none;stroke-width:1;stroke-linejoin:round"
       id="ellipse10"
       cx="114.24287"
       cy="132.31429"
       rx="3.6142857"
       ry="4.0857143" />
    <ellipse
       style="fill:#d4aa00;stroke:none;stroke-width:1;stroke-linejoin:round"
       id="ellipse11"
       cx="153.84286"
       cy="114.08572"
       rx="3.6142857"
       ry="4.0857143" />
    <ellipse
       style="fill:#d4aa00;stroke:none;stroke-width:1;stroke-linejoin:round"
       id="ellipse12"
       cx="144.41429"
       cy="149.28572"
       rx="3.6142857"
       ry="4.0857143" />
    <ellipse
       style="fill:#d4aa00;stroke:none;stroke-width:1;stroke-linejoin:round"
       id="ellipse13"
       cx="117.38572"
       cy="165.94287"
       rx="3.6142857"
       ry="4.0857143" />
    <ellipse
       style="fill:#d4aa00;stroke:none;stroke-width:1;stroke-linejoin:round"
       id="ellipse14"
       cx="163.27144"
       cy="129.80002"
       rx="3.6142857"
       ry="4.0857143" />
    <path
       style="fill:none;stroke:#000000;stroke-width:0.264583px;stroke-linecap:butt;stroke-linejoin:miter;stroke-opacity:1"
       d="M 53.114286,155.25714 192.02857,74.485713"
       id="path14" />
    <path
       style="fill:none;stroke:#000000;stroke-width:0;stroke-linecap:butt;stroke-linejoin:miter;stroke-opacity:1;stroke-dasharray:none"
       d="M 53.742857,155.57143 175.05714,184.48571 191.4,74.799999"
       id="path15" />
    <path
       style="opacity:0.2409;fill:#d4aa00;stroke:none;stroke-width:1.188;stroke-linejoin:round;stroke-dasharray:none"
       d="m 145.29301,177.35753 c -24.43253,-5.85161 -28.23462,-6.83695 -27.26637,-7.06624 3.02313,-0.7159 3.9749,-5.20314 1.5807,-7.45238 -0.63322,-0.59487 -1.15744,-0.76689 -2.33711,-0.76689 -1.17967,0 -1.70389,0.17202 -2.33711,0.76689 -1.70514,1.6019 -1.81865,4.4832 -0.25005,6.34737 l 0.84497,1.00419 -0.77891,-0.18218 C 95.147169,165.42341 53.83948,155.46945 53.951193,155.35773 54.294733,155.01419 190.64037,75.8374 190.7315,75.92853 c 0.0711,0.0711 -14.32465,97.40723 -15.84311,107.12206 -0.12892,0.82483 -0.33723,1.16779 -0.69404,1.14265 -0.28041,-0.0198 -13.28601,-3.09583 -28.90134,-6.83571 z M 97.217674,156.29104 c 1.580605,-1.76885 1.468856,-4.73349 -0.238903,-6.33784 -0.633216,-0.59487 -1.157438,-0.76689 -2.337107,-0.76689 -1.814451,0 -2.958062,0.88171 -3.503093,2.70086 -0.621602,2.07472 0.353232,4.60752 2.053645,5.33577 1.234657,0.52877 3.107695,0.0952 4.025458,-0.9319 z m 49.657136,-3.77143 c 1.5806,-1.76885 1.46886,-4.73348 -0.2389,-6.33784 -0.63322,-0.59487 -1.15744,-0.76689 -2.33711,-0.76689 -1.81445,0 -2.95806,0.88172 -3.50309,2.70086 -0.62161,2.07472 0.35323,4.60752 2.05364,5.33577 1.23466,0.52878 3.1077,0.0952 4.02546,-0.9319 z m -30.17143,-16.97142 c 1.58061,-1.76885 1.46886,-4.7335 -0.2389,-6.33785 -0.63322,-0.59487 -1.15744,-0.76689 -2.33711,-0.76689 -1.81445,0 -2.95806,0.88172 -3.50309,2.70086 -0.6216,2.07472 0.35323,4.60753 2.05365,5.33577 1.23465,0.52878 3.10769,0.0952 4.02545,-0.93189 z m 49.02857,-2.51429 c 1.58061,-1.76885 1.46886,-4.73349 -0.2389,-6.33784 -0.63321,-0.59488 -1.15744,-0.76689 -2.33711,-0.76689 -1.81445,0 -2.95806,0.88171 -3.50309,2.70086 -0.6216,2.07472 0.35323,4.60752 2.05365,5.33577 1.23465,0.52877 3.10769,0.0952 4.02545,-0.9319 z m -9.42857,-15.71429 c 1.58061,-1.76885 1.46886,-4.73348 -0.2389,-6.33784 -1.15514,-1.08519 -3.51908,-1.08519 -4.67421,0 -2.12456,1.99592 -1.6113,6.1995 0.88766,7.26974 1.23465,0.52878 3.10769,0.0952 4.02545,-0.9319 z"
       id="path16" />
    <path
       style="fill:#1e59ae;stroke:#000000;stroke-width:0.264583px;stroke-linecap:butt;stroke-linejoin:miter;stroke-opacity:1;fill-opacity:1;opacity:0.17325918"
       d="M 53.114286,154.94286 6.9142855,76.057143 102.45714,23.571428 191.71428,74.799999"
       id="path17" />
  </g>
</svg>
